<svg xmlns="http://www.w3.org/2000/svg" viewBox="0 0 568 501"><path d="M123.121 33.664C188.241 82.553 258.281 181.68 284 234.873c25.719-53.193 95.759-152.32 160.879-201.209C491.866-1.611 568-28.906 568 57.947c0 17.346-9.945 145.713-15.778 166.555-20.275 72.453-94.155 90.933-159.875 79.748C507.222 323.8 536.444 388.56 473.333 453.32c-119.86 122.992-172.272-30.859-185.702-70.239-2.698-7.854-3.992-11.539-4.631-11.539-.639 0-1.933 3.685-4.631 11.539-13.43 39.38-65.842 193.231-185.702 70.239C29.556 388.56 58.778 323.8 175.653 304.25c-65.72 11.185-139.6-7.295-159.875-79.748C9.945 203.66 0 75.293 0 57.947 0-28.906 76.134-1.611 123.121 33.664z"/></svg>

